<?xml version="1.0" encoding="UTF-8"?>
<svg id="Layer_1" xmlns="http://www.w3.org/2000/svg" version="1.1" viewBox="0 0 520 520">
  <!-- Generator: Adobe Illustrator 30.0.0, SVG Export Plug-In . SVG Version: 2.1.1 Build 123)  -->
  <path d="M400.1,262.9c-.3.3-6.8,3.3-7.7,3.6-10.7,3.3-18.8.7-28.7-3.3-1.3-1.8,7.9-9.2,9.4-11.3,13.2-17.5,1.8-41.7-20.5-41.7s-39.3,14.1-51.4,19.5c-23.2,10.4-46.6,21.4-69.5,32.5-14.1,6.8-37.9,16.3-49.7,25-33.1,24.3-13.5,73.5,28.2,71,23-1.3,75.5-29,100.7-38,23.2-8.2,48.2-15.7,72.9-14.9,2.4,5.1,4.4,10.4,7.3,15.3s8.4,10.5,9.1,12.3.7,2.7-.4,2.8c-27.9-4-56.6,4.1-82.6,13.4-28,10-60.5,28-88.3,35-86.2,21.6-132.6-85.6-48.7-129.6,42.3-22.2,95.9-46.7,140.1-65.1,7.8-3.2,16.7-7.3,25.1-8.1,38.9-3.5,67.9,26.6,61.9,65.6s-5.3,14.3-7.2,16Z"/>
  <path d="M102.4,240.7c-12.9-1.4-28.8-8.6-38.5-17.2-2.7-2.4-10.4-12.9-13-11.3-23.2,48.6,23.4,97.8,73.4,81.9l-4.2,29.8c-69.5,13.7-128.5-62-94.3-125.7,3.2-5.9,15.4-18.9,16.3-21.7,1.4-4.4,1.1-11.9,2.6-17.6,9.8-39.5,48.8-62.4,88.4-57.3,23.2-33.1,70.5-46.7,106.3-25.6l-16.6,21.4c-2.2,1.4-14.1-2.7-18.4-3-27.9-1.7-47.2,15.1-56.4,40.2-11.9-1.6-20.8-5.7-33.6-4.6-30.9,2.7-56.9,39.7-35.6,66.5,8.9,11.2,19.1,12.6,32,16.6l8.9,27.3c-5.5-.4-11.7.6-17.2,0Z"/>
  <path d="M297.7,163.1c-.6-.7-1.2-1.8-1.2-2.8-.1-4.3,10.5-17.7,12.8-22.5,3.9-2.4,16.7,10.2,25.4-3,12.1-18.3-8.9-38.7-27.1-40.4-32.7-3-56.2,22-55.2,54.1s3.6,13.7,3.6,20.8c-9.7-1.2-29.2-12.6-31.7-22.3-5.4-21.2,13.9-52.8,30-65.6,32.3-25.9,85.6-21.1,107,16.2,17.5,30.5-1.8,75.9-39.5,74.1-6-.3-19.9-4.1-23.9-8.7Z"/>
  <path d="M481,339.3c-9.3,74.6-93.7,111.8-152.3,59.4s-21.5-23.3-21.9-26.8,0-2.5,1.2-3.5,22.8-10.1,24.1-9.9c7.2,7.9,11.7,15.6,20.5,22.1,35,26.2,84.2,9.9,97.6-31.3l30.8-10.1Z"/>
  <path d="M398.3,280.1l34.1-7.3c.2,3.7-3.6,5.8-5,8.7-4.8,9.9-.7,21.2,10.6,23.1,27,4.6,40.5-24,36.5-47.3s-6.7-13.2-8.8-20.7l11.7-26.7c2.2-1.6,11.3,10.5,12.8,12.7,25.7,37.9,14.5,96.9-32.3,110.9-34.4,10.3-67.4-18-59.7-53.3Z"/>
  <path d="M418.2,257.3c-.6-5.7,2.8-10.7,3.4-16.2.6-5.5-.8-12.3.4-17.4.8-3.5,4-4.9,5.5-7.6,12.7-22.6,14.9-46.3-2.2-67.5-11.9-14.7-26.5-19.8-44.8-22.2,1.2-9.5-3-18.3-3.2-27.2l1.5-.9c36.6-1.4,68.9,21.2,82.8,54.5,16.1,38.6-3.5,89.8-43.2,104.5Z"/>
  <path d="M193.2,201.3c1.9-22.9-29.5-28.1-37.2-7.8-5.1,13.5,1.1,28.5,12.4,36.8s14.6,5.6,8.4,10.3-21.1,11.9-22.4,11.9c-4.5,0-13.6-9.4-16.6-13-30.6-35.6-6-91.5,41.5-87.9,23.7,1.8,47.7,25.9,41,50.5-3.9.2-25.9,1.3-27.2-.8Z"/>
  <path d="M380.3,475.9h-31.4c-1.2,0-6.4-1.8-7.8-2.9l-78.4-83-.8-2.5,26.6-11.4,32.6,33.9c16.3,17,35,34.1,50.4,51.6,3.4,3.9,9.3,9.4,8.9,14.3Z"/>
  <path d="M324.6,244.3c2.2,9-.2,18.1-.5,27.3-18.6,3.5-28,10.3-27.9,30.2,0,3,2.6,5.5,0,8.3s-23.8,10.9-24.9,10.1c-14.3-37.1,12.8-78.8,53.3-76Z"/>
  <path d="M254.7,328.5l-23.2,9.6c-3.7.4-5-3.6-7.6-5.3-7.3-4.7-15.9-2.7-24-3-4-7.6-8.8-15.2-9.7-23.9,21.6-11.5,57-2,64.6,22.6Z"/>
</svg>